<svg xmlns="http://www.w3.org/2000/svg" viewBox="0 0 24 24" fill="none" stroke-linecap="round" stroke-linejoin="round"><path d="M20 11a7.6 7.6 0 0 1-8.1 7.2 8.1 8.1 0 0 1-3.6-.9L3.8 18l.9-3.6a7.6 7.6 0 0 1-.9-3.6A7.6 7.6 0 0 1 11.9 3.7 7.6 7.6 0 0 1 20 11z" stroke="#eaf1fa" stroke-width="1.7"></path><circle cx="8.6" cy="11" r="1" fill="#e7b24c"></circle><circle cx="12" cy="11" r="1" fill="#e7b24c"></circle><circle cx="15.4" cy="11" r="1" fill="#e7b24c"></circle><circle cx="18.4" cy="18.4" r="0.85" fill="#e7b24c" opacity="0.85"></circle><circle cx="21.0" cy="19.0" r="0.85" fill="#e7b24c" opacity="0.6"></circle><circle cx="19.5" cy="20.8" r="0.85" fill="#e7b24c" opacity="0.55"></circle><circle cx="22.0" cy="21.3" r="0.85" fill="#e7b24c" opacity="0.35"></circle><circle cx="17.0" cy="20.3" r="0.85" fill="#e7b24c" opacity="0.4"></circle></svg>